HIERARCHY
ROOT Hips
{
	OFFSET	0.00	0.00	0.00
	CHANNELS 6 Xposition Yposition Zposition Zrotation Xrotation Yrotation
	JOINT LeftUpLeg
	{
		OFFSET	 0.126116	-0.014019	-0.065224
		CHANNELS 3 Zrotation Xrotation Yrotation
		JOINT LeftLeg
		{
			OFFSET	 0.000000	 0.000000	 0.569914
			CHANNELS 3 Zrotation Xrotation Yrotation
			JOINT LeftFoot
			{
				OFFSET	 0.000000	 0.000000	 0.544423
				CHANNELS 3 Zrotation Xrotation Yrotation
				JOINT LeftToeBase
				{
					OFFSET	 0.000000	 0.000000	 0.207117
					CHANNELS 3 Zrotation Xrotation Yrotation
					End Site
					{
						OFFSET	 0.000000	 0.000000	 0.207117
					}
				}
			}
		}
	}
	JOINT RightUpLeg
	{
		OFFSET	-0.124023	-0.008373	-0.065224
		CHANNELS 3 Zrotation Xrotation Yrotation
		JOINT RightLeg
		{
			OFFSET	 0.000000	 0.000000	 0.570047
			CHANNELS 3 Zrotation Xrotation Yrotation
			JOINT RightFoot
			{
				OFFSET	 0.000000	 0.000000	 0.544354
				CHANNELS 3 Zrotation Xrotation Yrotation
				JOINT RightToeBase
				{
					OFFSET	 0.000000	 0.000000	 0.207540
					CHANNELS 3 Zrotation Xrotation Yrotation
					End Site
					{
						OFFSET	 0.000000	 0.000000	 0.207540
					}
				}
			}
		}
	}
	JOINT Spine
	{
		OFFSET	 0.000184	-0.007763	 0.117403
		CHANNELS 3 Zrotation Xrotation Yrotation
		JOINT Spine1
		{
			OFFSET	 0.000000	 0.000000	 0.137269
			CHANNELS 3 Zrotation Xrotation Yrotation
			JOINT Spine2
			{
				OFFSET	 0.000000	 0.000000	 0.156879
				CHANNELS 3 Zrotation Xrotation Yrotation
				JOINT LeftShoulder
				{
					OFFSET	 0.080501	-0.002496	 0.160144
					CHANNELS 3 Zrotation Xrotation Yrotation
					JOINT LeftArm
					{
						OFFSET	 0.000000	 0.000000	 0.164363
						CHANNELS 3 Zrotation Xrotation Yrotation
						JOINT LeftForeArm
						{
							OFFSET	 0.000000	 0.000000	 0.364576
							CHANNELS 3 Zrotation Xrotation Yrotation
							JOINT LeftHand
							{
								OFFSET	 0.000000	 0.000000	 0.360812
								CHANNELS 3 Zrotation Xrotation Yrotation
								JOINT LeftHandIndex1
								{
									OFFSET	 0.000000	 0.000000	 0.086006
									CHANNELS 3 Zrotation Xrotation Yrotation
									JOINT LeftHandIndex2
									{
										OFFSET	 0.000000	 0.000000	 0.047237
										CHANNELS 3 Zrotation Xrotation Yrotation
										JOINT LeftHandIndex3
										{
											OFFSET	-0.004284	-0.000551	 0.038165
											CHANNELS 3 Zrotation Xrotation Yrotation
											End Site
											{
												OFFSET	-0.004284	-0.000551	 0.038165
											}
										}
									}
								}
							}
						}
					}
				}
				JOINT Neck
				{
					OFFSET	 0.000000	 0.000000	 0.176489
					CHANNELS 3 Zrotation Xrotation Yrotation
					JOINT Head
					{
						OFFSET	 0.000000	-0.001747	 0.077940
						CHANNELS 3 Zrotation Xrotation Yrotation
						End Site
						{
							OFFSET	 0.000000	-0.001747	 0.077940
						}
					}
				}
				JOINT RightShoulder
				{
					OFFSET	-0.080363	 0.000306	 0.159706
					CHANNELS 3 Zrotation Xrotation Yrotation
					JOINT RightArm
					{
						OFFSET	 0.000000	 0.000000	 0.164196
						CHANNELS 3 Zrotation Xrotation Yrotation
						JOINT RightForeArm
						{
							OFFSET	 0.000000	 0.000000	 0.365611
							CHANNELS 3 Zrotation Xrotation Yrotation
							JOINT RightHand
							{
								OFFSET	 0.000000	 0.000000	 0.360648
								CHANNELS 3 Zrotation Xrotation Yrotation
								JOINT RightHandIndex1
								{
									OFFSET	 0.000000	 0.000000	 0.069977
									CHANNELS 3 Zrotation Xrotation Yrotation
									JOINT RightHandIndex2
									{
										OFFSET	 0.000000	 0.000000	 0.052305
										CHANNELS 3 Zrotation Xrotation Yrotation
										JOINT RightHandIndex3
										{
											OFFSET	 0.009002	-0.000782	 0.042196
											CHANNELS 3 Zrotation Xrotation Yrotation
											End Site
											{
												OFFSET	 0.009002	-0.000782	 0.042196
											}
										}
									}
								}
							}
						}
					}
				}
			}
		}
	}
}
MOTION
Frames:    5
Frame Time: 0.03333334
-0.640059	-0.139211	 1.281310	-159.651000	 2.338433	 7.960889	-6.210786	-5.117333	 168.384700	-8.967385	-30.739420	-3.599014	-47.118840	 82.384670	 43.730120	-2.385833	 28.452760	 0.000004	 30.320300	-42.690490	-175.478200	-27.643150	-57.515560	-14.238850	 28.986710	 36.067870	-38.966410	 2.384659	 28.388700	-0.000001	 36.103290	-9.668015	-17.187550	 46.530180	 23.289030	-5.477709	-16.917570	-4.421569	 7.317853	-91.776180	 78.527420	-180.000000	 20.094390	 48.296550	-23.419410	-9.680958	-7.633914	-54.730390	 8.334582	 1.741696	-4.231226	-4.131196	 21.524690	 0.986298	-5.167839	 0.733520	 3.519257	-1.378229	 35.397820	-2.634230	-14.016970	 16.435700	-7.789558	-28.634600	 2.563084	 5.698253	 89.782150	 78.292870	 179.995200	 5.759878	 65.445850	-6.970057	-3.409265	-6.417617	 20.997050	 119.075300	-46.593120	-4.458325	 5.715225	 19.176060	-3.692089	 5.027514	 0.245388	-9.378011	-2.350882	 35.473990	 5.254307
-0.639573	-0.138873	 1.281749	-159.845500	 2.434149	 8.191790	-5.668023	-5.201837	 168.046400	-8.825848	-30.670310	-3.518741	-48.683710	 83.629880	 44.916360	-2.385833	 28.452760	 0.000004	 30.684880	-42.788590	-175.553000	-25.226990	-57.712100	-12.183280	 35.119980	 40.672320	-41.663880	 2.384659	 28.388700	-0.000001	 35.970760	-10.972730	-17.739920	 46.647740	 24.870730	-6.304393	-16.844730	-4.859939	 7.425373	-91.776150	 78.527400	 180.000000	 20.023480	 48.182790	-23.444750	-9.498018	-7.871220	-54.641270	 8.665788	 1.944546	-4.348815	-4.131196	 21.524690	 0.986298	-5.167839	 0.733520	 3.519257	-1.378229	 35.397820	-2.634230	-13.981360	 16.352720	-7.879088	-28.667070	 2.493794	 5.557344	 89.782080	 78.298870	 179.994400	 5.360530	 65.472570	-6.330660	-3.893595	-6.524599	 20.718830	 118.480100	-45.656480	-4.664355	 5.715225	 19.176060	-3.692089	 5.027514	 0.245388	-9.378011	-2.350882	 35.473990	 5.254307
-0.638516	-0.138371	 1.282347	-159.982300	 2.394620	 8.149955	-4.717126	-5.083372	 167.942400	-8.654647	-30.282570	-3.391373	-53.858850	 85.515330	 49.645820	-2.385833	 28.452760	 0.000004	 30.175420	-42.753190	-175.664400	-22.720080	-57.959520	-10.059230	 40.782610	 44.617210	-44.461000	 2.384659	 28.388700	-0.000001	 35.784280	-12.282980	-18.183910	 46.804070	 26.986980	-7.640521	-16.706760	-5.731213	 7.756634	-91.776210	 78.527420	-180.000000	 19.811440	 48.129410	-23.281700	-9.281578	-8.159908	-54.567950	 8.931963	 2.086217	-4.456404	-4.131196	 21.524690	 0.986298	-5.167839	 0.733520	 3.519257	-1.378229	 35.397820	-2.634230	-14.012930	 16.240480	-7.755322	-28.670320	 2.478303	 5.332411	 89.782170	 78.307950	 179.993500	 4.658494	 65.539110	-5.346097	-4.532689	-6.609852	 20.213750	 118.127300	-43.808410	-4.485345	 5.715225	 19.176060	-3.692089	 5.027514	 0.245388	-9.378011	-2.350882	 35.473990	 5.254307
-0.637166	-0.137167	 1.282654	-160.756300	 2.729931	 8.413218	-3.329800	-5.446098	 167.480100	-8.147156	-30.179730	-3.123428	-70.030810	 86.513340	 65.263730	-2.385833	 28.452760	 0.000004	 28.968900	-43.307630	-176.108700	-20.273320	-57.787520	-7.950376	 44.062720	 47.613880	-45.579170	 2.384659	 28.388700	-0.000001	 36.368100	-12.830540	-18.644820	 46.727090	 27.506100	-6.988807	-16.725930	-5.645200	 7.521271	-91.776260	 78.527380	-179.999900	 19.698050	 47.991850	-23.150300	-8.986643	-8.582361	-54.564580	 9.288868	 2.272333	-4.608371	-4.131196	 21.524690	 0.986298	-5.167839	 0.733520	 3.519257	-1.378229	 35.397820	-2.634230	-14.016500	 16.378920	-7.701986	-28.634800	 2.335867	 5.133229	 89.782170	 78.314250	 179.992800	 3.803059	 65.629200	-4.234228	-5.462959	-6.783853	 19.665610	 116.450200	-43.833450	-4.718938	 5.715225	 19.176060	-3.692089	 5.027514	 0.245388	-9.378011	-2.350882	 35.473990	 5.254307
-0.636298	-0.136251	 1.282686	-161.349700	 3.006092	 8.658082	-2.531332	-5.765832	 167.128000	-7.752625	-30.226590	-2.927588	-81.407420	 86.580980	 76.285000	-2.385833	 28.452760	 0.000004	 28.247500	-43.728790	-176.448100	-19.161500	-57.535970	-6.984097	 44.700090	 48.793750	-45.374630	 2.384659	 28.388700	-0.000001	 36.925420	-12.807290	-18.895610	 46.593230	 27.203820	-5.953838	-16.788150	-5.270149	 7.206511	-91.776180	 78.527360	 180.000000	 19.683670	 47.891120	-23.103690	-8.818643	-8.830306	-54.583700	 9.485986	 2.377023	-4.694427	-4.131196	 21.524690	 0.986298	-5.167839	 0.733520	 3.519257	-1.378229	 35.397820	-2.634230	-14.008250	 16.533950	-7.702040	-28.604230	 2.223172	 5.048753	 89.782160	 78.316270	 179.992600	 3.293221	 65.680660	-3.614304	-6.005587	-6.897784	 19.398010	 115.140200	-44.509160	-5.071833	 5.715225	 19.176060	-3.692089	 5.027514	 0.245388	-9.378011	-2.350882	 35.473990	 5.254307
